<?xml version="1.0" encoding="utf-8"?>
<!-- Generator: Adobe Illustrator 23.0.3, SVG Export Plug-In . SVG Version: 6.00 Build 0)  -->
<svg version="1.1" id="Capa_1" xmlns="http://www.w3.org/2000/svg" xmlns:xlink="http://www.w3.org/1999/xlink" x="0px" y="0px"
	 viewBox="0 0 1200 1200" enable-background="new 0 0 1200 1200" xml:space="preserve">
<g>
	<path fill="#C9A614" d="M876.798,826.794c-2.477-4.274-4.928-8.508-7.704-12.178c-8.448-11.173-18.366-21.208-29.105-30.182
		c-4.699-1.316-9.26-2.734-13.578-4.187c-24.117-8.115-44.932-21.395-63.653-38.211c-4.108,3.881-8.37,7.589-12.757,11.12
		c25.898,13.897,51.405,28.557,76.778,43.37C843.444,806.255,860.685,815.82,876.798,826.794z"/>
	<path fill="#C9A614" d="M736.618,762.941c-2.31,1.525-4.651,2.99-7.032,4.385c25.815,20.442,53.31,40.042,78.579,61.573
		C788.789,802.126,764.986,776.325,736.618,762.941z"/>
	<path fill="#DCC615" d="M779.727,724.405c-0.558,0.626-1.106,1.256-1.667,1.88c-2.669,2.972-5.424,5.888-8.229,8.758
		c19.281,15.224,40.548,27.559,64.296,34.474c7.192,2.094,14.677,3.345,22.211,4.433c-8.013-4.763-15.718-9.958-23.036-14.676
		C815.464,747.774,798.119,735.077,779.727,724.405z"/>
	<path fill="#C9A614" d="M842.667,734.322c-15.372-10.759-33.81-17.35-51.811-22.859c-1.794,2.174-3.616,4.337-5.47,6.486
		c16.897,9.528,32.957,20.749,49.39,30.972c14.799,9.206,30.506,21.151,46.933,28.968
		C870.401,761.659,860.027,746.474,842.667,734.322z"/>
	<path fill="#C9A614" d="M774.501,458.635c4.618,4.541,8.872,9.437,12.741,14.688c16.168-23.658,35.744-45.515,53.629-67.705
		c14.255-17.686,28.641-35.177,43.355-52.347c-20.934,11.462-42.107,22.301-60.11,38.806
		C803.344,411.122,788.498,434.53,774.501,458.635z"/>
	<path fill="#E5D573" d="M689.796,507.334c0.425-7.69-9.529-11.09-15.432-11.936c-3.515-0.503-8.492-1.155-11.81,0.319
		c-2.251,1-3.549,2.789-4.665,4.795c-0.75,1.79-2.008,3.449-2.918,5.171c-0.69,1.307-0.897,2.856-0.684,4.316
		c0.445,3.048,2.819,4.937,5.104,6.21c3.025,1.537,7.005,2.356,10.952,2.525C677.401,519.039,689.294,516.424,689.796,507.334z"/>
	<path fill="#E5D573" d="M661.565,589.825c0.515,2.008,0.992,2.005,3.104,2.54c3.799,0.961,9.112,0.826,9.729-3.997
		c0.574-4.489-3.582-7.791-7.563-8.719c-2.164-0.505-3.973-0.526-5.355,0.739c-0.041,0.232-0.095,0.457-0.141,0.686
		C661.993,584.02,660.813,586.894,661.565,589.825z"/>
	<path fill="#E5D573" d="M688.299,616.227c5.547,4.359,11.946,5.677,18.895,4.939c7.544-0.801,15.012-4.584,16.421-12.73
		c1.707-9.868-9.576-13.815-17.55-14.486c-2.88-0.242-7.988-0.902-10.302,0.862c-0.942,0.718-1.609,1.746-1.817,2.912
		c-0.859,4.799-3.046,8.665-6.056,11.578C685.895,611.233,686.117,614.513,688.299,616.227z"/>
	<path fill="#DCC615" d="M756.131,828.634c18.143,12.281,38.403,15.429,58.86,19.258c-32.517-23.213-62.864-50.735-93.444-76.158
		c-4.452,2.235-9.026,4.216-13.718,5.921C721.598,796.585,736.686,815.472,756.131,828.634z"/>
	<path fill="#E5D573" d="M695.135,567.87c8.545,0.712,15.541-2.823,18.92-10.992c3.792-9.166-1.509-14.119-8.809-15.283
		c-4.77-0.761-9.788,2.004-10.887,6.708c-0.432,1.848-1.983,3.472-4.427,3.717c-4.797,0.48-11.167,4.364-7.822,10.282
		C684.331,566.228,691.106,567.534,695.135,567.87z"/>
	<path fill="#E5D573" d="M666.387,545.649c0.304-1.632,0.656-2.638-0.679-3.553c-1.185-0.812-3.116-1.454-4.483-1.8
		c-4.161-1.052-6.764,0.324-8.522,4.185c-0.005,0.011-0.01,0.023-0.016,0.034c-1.471,3.241,0.969,7.021,4.523,6.821
		C660.965,551.126,665.673,549.481,666.387,545.649z"/>
	<path fill="#C9A614" d="M499.689,308.75c1.257-8.876,4.272-17.474,7.884-26.128c3.143-7.53,6.278-15.43,10.181-22.826
		c-5.784-5.326-10.47-11.975-16.468-17.134c-5.685-4.89-11.931-8.943-18.38-12.697c-1.838,6.698-5.343,13.163-7.195,19.79
		c-2.524,9.034-3.157,18.739-5.855,27.698C481.177,286.319,491.142,296.846,499.689,308.75z"/>
	<path fill="#DCC615" d="M764.558,449.729c9.273-25.598,26.829-48.726,48.316-68.298c8.377-21.712,10.869-42.871,10.926-65.601
		c-25.058,41.048-53.941,79.126-72.88,123.718C755.632,442.754,760.19,446.142,764.558,449.729z"/>
	<path fill="#DCC615" d="M608.348,384.36c5.06,0.059,10.076,0.407,15.055,0.995c-0.059-30.621-10.27-61.139-5.094-91.671
		c0.832-4.905,2.173-9.686,3.896-14.334c-0.632-1.163-1.235-2.387-1.944-3.653c-2.948-5.268-6.155-10.324-9.874-15.089
		c-1.111-1.423-2.264-2.81-3.439-4.176c-1.944-0.552-3.574-1.982-3.975-4.327c-3.379-3.441-7.044-6.555-11.102-9.137
		c2.312,23.31,3.131,46.767,5.452,70.1C599.658,336.546,600.921,361.651,608.348,384.36z"/>
	<path fill="#C9A614" d="M507.787,321.157c0.418,0.706,0.854,1.394,1.263,2.108c8.865,15.47,15.36,32.58,18.899,50.051
		c1.865,9.207,4.14,20.322,3.657,30.621c4.676-2.131,9.399-4.152,14.158-6.077c-6.479-22.698-8.513-47.611-10.781-70.793
		c-2.257-23.073-5.524-47.11-4.57-70.427C517.853,274.666,506.325,300.784,507.787,321.157z"/>
	<path fill="#DCC615" d="M555.05,394.31c4.869-1.757,9.787-3.35,14.763-4.732c6.895-46.502-5.677-90.14-29.451-129.649
		c3.28,20.623,4.032,41.942,6.163,62.64C548.996,346.568,551.918,370.421,555.05,394.31z"/>
	<path fill="#C9A614" d="M628.285,266.317c4.583-8.125,10.358-15.658,16.898-22.426c-3.889-6.987-6.739-14.348-12.646-20.317
		c-1.365-1.379-2.826-2.415-4.287-3.557c-8.063,7.178-12.296,18.944-13.001,29.481c1.024,1.068,2.022,2.156,2.981,3.268
		C621.054,256.039,625.177,260.993,628.285,266.317z"/>
	<path fill="#C9A614" d="M634.793,387.087c6.543,1.264,13.015,2.956,19.436,4.936c-1.186-26.047,1.459-52.797,3.262-78.58
		c1.624-23.216,2.976-46.74,5.872-69.93c-15.878,19.651-31.41,37.258-31.965,65.458
		C630.877,335.452,637.718,360.853,634.793,387.087z"/>
	<path fill="#C9A614" d="M723.117,422.914c6.617,3.571,13.175,7.308,19.558,11.288c5.485-22.505,20.111-44.279,31.823-63.101
		c12.368-19.876,25.633-39.215,39.105-58.379c-19.133,11.723-37.623,23.234-53.673,40.189
		C741.041,372.864,727.771,395.947,723.117,422.914z"/>
	<path fill="#DCC615" d="M725.14,372.391c5.124-8.435,11.026-16.297,16.925-23.261c7.576-8.943,16.511-17.824,26.367-25.772
		c-0.334-14.644,4.725-30.361,5.101-44.859c0.314-12.1-0.826-23.923-2.287-35.752c-7.468,20.959-17.296,41.325-24.993,62.014
		C737.973,327.02,730.905,349.532,725.14,372.391z"/>
	<path fill="#C9A614" d="M689.883,406.044c4.813,2.252,9.602,4.601,14.366,7.03c0.958,0.488,1.923,0.985,2.884,1.477
		c6.441-63.298,33.192-119.459,55.492-178.158c-8.351,7.612-16.9,15.034-24.485,23.476c-11.87,13.212-22.27,27.957-30.585,43.661
		C691.197,334.425,684.899,371.382,689.883,406.044z"/>
	<path fill="#DCC615" d="M661.995,394.574c5.194,1.814,10.353,3.812,15.479,5.969c-6.104-32.855-0.458-68.358,13.747-98.283
		c1.349-2.841,2.822-5.695,4.351-8.551c-7.743-16.649-15.447-33.129-23.617-49.51c-2.711,24.196-3.663,48.755-5.265,72.957
		C665.003,342.65,661.519,368.885,661.995,394.574z"/>
	<path fill="#C9A614" d="M582.539,386.601c5.657-1.056,11.258-1.724,16.807-2.032c-8.051-20.418-10.839-43.656-12.968-65.037
		c-2.206-22.154-4.075-44.586-3.904-66.906c-6.648,14.721-10.667,29.461-11.35,46.708c-0.003,0.063-0.019,0.118-0.023,0.181
		C581.84,326.882,586.093,356.378,582.539,386.601z"/>
	<path fill="#DCC615" d="M862.805,485.281c20.89-10.223,44.175-17.856,67.763-21.259c10.779-11.791,19.8-25.053,27.74-38.924
		c3.811-6.658,6.829-14.872,10.416-22.575c-38.736,28.284-77.895,56.845-115.011,87.491
		C856.795,488.311,859.843,486.731,862.805,485.281z"/>
	<path fill="#E5D573" d="M648.184,624.603c3.384,0.481,10.212,0.048,11.923-3.697c2.138-4.679-4.1-7.713-7.637-8.812
		c-2.868-0.891-5.225-1.058-7.578-0.781c-0.633,0.737-1.467,1.372-2.571,1.798C633.017,616.703,643.231,623.899,648.184,624.603z"/>
	<path fill="#E5D573" d="M551.693,547.464c-0.697-7.84-9.56-10.532-16.179-11.41c-3.486-0.462-8.408-1.025-11.755,0.343
		c-1.752,0.716-3.321,2.098-3.176,3.297c-0.073,2.361,0.788,3.886-0.408,6.121C513.996,557.368,553.793,571.065,551.693,547.464z"/>
	<path fill="#DCC615" d="M792.902,481.777c1.473,2.449,2.87,4.965,4.161,7.575c5.167-8.789,12.781-16.605,19.495-23.431
		c14.828-15.074,31.296-28.639,48.979-40.238c8.246-5.409,16.772-10.365,25.507-14.921c5.921-21.753,9.375-42.836,11.253-64.982
		c-15.858,22.362-33.261,43.557-50.703,64.93C832.254,434.409,813.594,459.179,792.902,481.777z"/>
	<path fill="#E5D573" d="M543.006,605.648c-3.665-7.175-10.569-11.546-18.567-12.095c-4.221-0.29-11.701,0.232-10.57,6.425
		c0.284,1.556,1.497,2.184,0.466,3.81C504.906,618.662,557.444,633.917,543.006,605.648z"/>
	<path fill="#C9A614" d="M803.622,504.923c1.317,3.703,2.479,7.456,3.567,11.233c26.198-26.357,56.515-49.059,85.941-71.476
		c18.255-13.908,36.792-27.926,56.009-40.78c-5.623,1.292-11.092,2.652-16.005,4.451c-18.685,6.843-36.601,15.697-53.504,26.188
		C850.578,452.571,821.882,475.495,803.622,504.923z"/>
	<path fill="#DCC615" d="M1010.702,545.084c2.682-2.917,5.194-5.991,7.743-9.02c-17.256,6.83-33.969,15.308-50.987,22.482
		c-46.042,19.41-93.58,35.256-141.505,49.318c0.343,2.451,0.663,4.903,0.94,7.359c0.193,1.711,0.261,3.374,0.37,5.053
		c27.802-16.375,61.87-19.961,93.718-17.691c21.717-7.025,42.242-17.304,60.553-31.014
		C992.045,563.701,1001.816,554.748,1010.702,545.084z"/>
	<path fill="#DCC615" d="M905.745,542.925c21.764-15.037,32.888-35.656,44.273-57.319c-18.553,13.96-38.252,26.604-57.828,38.836
		c-22.976,14.357-47.85,32.115-74.064,41.189c0.439,2.13,0.875,4.261,1.314,6.394C850.27,566.866,878.956,561.433,905.745,542.925z"
		/>
	<path fill="#94AF85" d="M1055.266,442.605c6.003-5.309,11.914-10.717,17.794-16.16c-7.04,2.038-14.153,3.46-20.931,4.312
		c-22.907,2.882-44.315-1.113-65.789,2.028c-0.374,10.707-4.005,21.168-7.078,31.366c-2.374,7.878-4.751,15.892-7.776,23.604
		c5.888,1.705,11.727,3.525,17.503,5.532C1012.654,478.67,1034.49,460.979,1055.266,442.605z"/>
	<path fill="#C9A614" d="M958.76,506.925c-26.223,47.453-84.041,82.609-136.893,77.125c0.899,4.592,1.748,9.191,2.527,13.797
		c47.563-14.334,94.172-30.945,140.227-49.592c17.291-7.001,35.426-16.324,53.891-21.753
		C998.481,520.8,978.078,514.185,958.76,506.925z"/>
	<path fill="#C9A614" d="M827.317,633.127c-0.122,1.939-0.276,3.865-0.507,5.763c24.608-8.23,52.375-6.744,78.099-0.37
		c34.029,1.339,68.593,0.166,102.219-5.501c-5.738-1.195-11.299-2.524-16.38-3.536c-19.871-3.957-39.568-8.803-59.646-11.654
		C895.818,612.818,858.363,614.354,827.317,633.127z"/>
	<path fill="#C9A614" d="M870.164,497.87c-12.242,5.962-23.988,13.228-34.247,22.223c-8.5,7.453-14.877,16.402-21.903,25.026
		c0.474,2.368,0.94,4.737,1.402,7.104c0.25,1.282,0.512,2.565,0.768,3.848c25.438-9.769,49.555-28.06,71.967-42.4
		c18.637-11.925,37.156-24.28,56.201-35.642C918.704,480.832,894.059,486.234,870.164,497.87z"/>
	<path fill="#E5D573" d="M615.982,624.874c-3.641,0.596-9.963,4.779-5.914,8.996c1.917,1.996,8.775,4.011,11.31,2.128
		C631.667,628.355,621.35,623.996,615.982,624.874z"/>
	<path fill="#E5D573" d="M639.831,529.841c-0.028-0.804-0.185-1.536-0.427-2.214c-0.741-1.636-1.467-2.58-2.84-3.665
		c-3.209-2.35-8.118-3.108-11.628-2.888c-3.051,0.192-7.647,0.958-8.873,4.296c-0.971,2.642,0.058,5.777,0.756,8.339
		c0.245,0.9,0.884,1.488,1.705,1.915c2.209,1.148,4.711,1.413,7.163,1.453c2.603,0.043,5.229-0.172,7.761-0.803
		C636.659,535.473,639.962,533.587,639.831,529.841z"/>
	<path fill="#E5D573" d="M612.648,486.62c-4.353,0.362-7.329,1.69-9.291,4.094c-2.129,2.609-1.234,6.492,1.69,8.161
		c8.521,4.866,22.243,6.798,22.692-2.546C628.11,488.626,618.673,486.119,612.648,486.62z"/>
	<path fill="#C9A614" d="M611.531,909.746c27.326-41.536,21.891-94.05-11.175-130.771c-4.523-0.618-9.044-1.284-13.555-2.024
		c-2.732,44.148,3.897,90.21,22.302,130.611C609.911,908.291,610.718,909.024,611.531,909.746z"/>
	<path fill="#E5D573" d="M639.462,677.352c-2.19-11.915-23.84-18.712-31.525-9.205c-1.763,2.203-2.463,5.152-0.6,9.106
		c4.058,8.613,13.847,8.173,17.185,8.21C630.525,685.531,641.009,685.766,639.462,677.352z"/>
	<path fill="#E5D573" d="M583.768,531.727c-3.173-0.865-6.978-2.026-10.142-0.531c-1.927,0.911-4.199,2.975-3.684,5.337
		c0.661,3.031,3.499,5.295,6.023,6.807c2.26,1.354,4.945,2.136,7.57,2.289c2.605,0.152,5.739-0.511,7.523-2.584
		C595.311,538.101,588.153,532.922,583.768,531.727z"/>
	<path fill="#E5D573" d="M573.423,579.854c0.003-4.468-0.811-11.036-5.757-12.608c-5.431-1.726-10.759,2.325-12.063,7.418
		c-0.899,3.512,0.576,6.916,1.67,8.184c1.74,2.017,4.068,3.542,6.596,4.375C570.498,589.405,573.419,586.24,573.423,579.854z"/>
	<path fill="#E5D573" d="M580.104,627.618c6.001,0.258,16.766-2.077,16.315-10.234c-0.418-7.557-11.722-13.231-17.703-12.853
		c-0.761,0.048-1.48,0.133-2.163,0.25c-2.439,0.419-4.009,2.542-4.374,4.99c-0.211,1.417-1.079,2.783-2.826,3.775
		C558.821,619.527,574.479,627.375,580.104,627.618z"/>
	<path fill="#E5D573" d="M569.166,502.909c-3.155-3.724-11.367-6.813-16.78-6.116c-2.134,0.318-3.006,1.384-4.618,2.627
		c-2.708,2.002-5.412,6.362-0.326,11.109c3.629,3.273,9.267,4.871,13.798,4.824C567.833,515.284,574.269,508.932,569.166,502.909z"
		/>
	<path fill="#E5D573" d="M573.302,671.204c10.908,1.702,17.739-7.2,11.111-16.641c-7.225-10.291-18.515-10.198-28.646-5.878
		c-2.577,1.621-3.259,4.567-3.005,5.997C554.91,666.799,566.631,670.163,573.302,671.204z"/>
	<path fill="#DCC615" d="M594.008,893.117c-3.839-10.486-6.557-21.468-8.72-31.718c-5.945-28.17-7.359-56.945-4.953-85.574
		c-4.634-0.84-9.249-1.777-13.838-2.821c-8.99,21.011-9.404,45.019-4.128,67.27C567.333,861.207,579.504,878.109,594.008,893.117z"
		/>
	<path fill="#7E966F" d="M245.452,644.339c-29.724,14.535-54.709,38.407-89.06,43.402c-24.034,3.494-48.552-0.361-69.819-10.903
		c19.475,15.121,43.563,23.939,68.533,30.039c18.673,4.562,37.658,8.18,56.765,10.504c-0.258-0.563-0.458-1.176-0.545-1.858
		c-2.339-18.306,6.522-37.781,17.14-52.258C232.796,657.359,238.689,650.167,245.452,644.339z"/>
	<path fill="#DCC615" d="M674.032,905.684c15.219,21.81,31.762,43.215,55.128,55.786c-22.721-36.126-39.807-75.443-53.521-115.914
		C678.495,865.637,678.687,885.844,674.032,905.684z"/>
	<path fill="#C9A614" d="M721.69,867.499c-6.354-16.974-14.15-33.412-23.19-49.12c-6.795-11.808-15.464-22.527-22.567-34.079
		c-2.498,0.177-4.999,0.331-7.51,0.402c11.625,42.713,25.81,84.623,44.371,124.863c8.386,18.18,18.104,35.575,27.326,53.284
		c3.177-15.256-2.388-36.372-5.101-49.437C731.775,897.791,727.283,882.44,721.69,867.499z"/>
	<path fill="#DCC615" d="M737.375,871.494c4.286,12.748,7.823,25.737,10.483,38.908c13.477,8.379,28.141,14.383,42.364,21.116
		c-19.132-19.047-35.989-40.927-53.456-61.803C736.967,870.305,737.178,870.909,737.375,871.494z"/>
	<path fill="#C9A614" d="M760.201,845.398c-4.909-2.555-9.621-5.428-14.044-8.707c-19.209-14.243-37.482-33.863-47.079-56.276
		c-2.034,0.565-4.084,1.088-6.162,1.541c14.084,17.07,25.011,38.795,33.674,60.194c24.809,25.781,49.242,53.018,71.768,81.099
		c-4.334-11.34-8.598-22.712-14.1-33.627C777.012,875.249,764.752,861.16,760.201,845.398z"/>
	<path fill="#C9A614" d="M831.908,840.503c3.271,4.793,6.463,9.648,9.52,14.612c3.896,6.329-4.237,12.162-9.365,8.838
		c-18.013-1.858-37.066-4.947-54.662-11.141c2.089,2.786,4.194,5.551,6.096,8.385c6.611,9.847,12.302,20.39,17.238,31.168
		c13.137,6.68,27.078,11.876,41.181,16.096c10.021,2.999,21.653,3.645,31.808,6.906c-3.986-11.021-6.531-22.895-11.157-33.649
		c-5.501-12.788-11.756-25.273-19.382-36.928C839.336,843.495,835.565,842.056,831.908,840.503z"/>
	<path fill="#DCC615" d="M787.089,787.177c12.036,11.604,23.031,24.039,33.132,37.188c18.371,8.844,37.349,11.712,57.023,13.984
		c-31.843-19.566-64.063-38.801-96.649-57.254C782.774,783.073,784.936,785.101,787.089,787.177z"/>
	<path fill="#DCC615" d="M568.699,885.902c-10.91,13.73-29.033,25.171-42.092,34.919c-6.035,4.505-12.969,10.086-20.382,14.526
		c0.883,5.689,3.25,11.095,6.162,16.066c2.902,4.952,6.998,9.421,10.162,14.275c12.544-9.583,23.821-20.095,34.404-31.913
		c8.901-9.94,15.87-22.235,24.734-32.235C577.041,896.586,572.671,891.372,568.699,885.902z"/>
	<path fill="#C9A614" d="M561.122,874.269c-6.493-11.175-11.259-23.252-13.462-36.174c-1.173-6.879-2.088-14.796-2.326-22.975
		c-14.877,21.838-29.541,43.326-41.105,67.558c-7.94,16.637-14.172,34.001-21.62,50.835c15.511-4.999,31.629-19.728,43.175-28.73
		C537.325,895.786,548.466,882.433,561.122,874.269z"/>
	<path fill="#C9A614" d="M621.858,781.812c23.751,32.674,26.487,77.269,9.678,113.376c4.315,3.611,8.152,7.758,13.002,10.841
		c4.209,2.675,8.954,4.886,13.232,7.648c11.953-43.06,3.795-86.367-6.659-129.177C641.344,784.018,631.56,783.009,621.858,781.812z"
		/>
	<path fill="#E5D573" d="M695.276,661.532c0.561-1.394,0.974-2.862,1.118-4.361c0.623-6.478-4.208-11.042-9.819-13.258
		c-3.65-1.442-7.606-2.642-11.568-2.58c-4.899,0.077-9.763,2.716-12.766,6.179c-2.208,2.547-3.492,6.896-2.364,10.167
		c1.722,4.989,6.548,9.303,11.407,11.154C680.338,672.282,691.247,671.539,695.276,661.532z"/>
	<path fill="#C9A614" d="M625.721,906.021c-2.321,3.807-4.866,7.49-7.667,11.005c1.243,5.429-6.428,10.823-12.106,6.427
		c-4.962-3.842-9.83-7.943-14.522-12.275c-2.859,5.472-6.608,10.789-10.677,15.807c10.292,10.549,19.009,22.125,29.473,32.548
		c8.681,8.648,21.225,14.405,30.014,22.881c4.337-9.417,8.781-18.71,11.423-28.819c2.474-9.468,2.325-19.543,4.574-28.964
		c-0.067-0.125-0.128-0.254-0.185-0.386C645.25,922.021,632.957,914.854,625.721,906.021z"/>
	<path fill="#7E966F" d="M1066.849,598.647c-0.561,0.233-1.769,5.04-0.886,5.744c1,0.798,16.492,2.983,20.182,3.319
		c5.704,0.519,11.445,0.563,17.159,0.191c0.115-0.008,0.211,0.013,0.323,0.01c4.032-3.72,7.857-7.666,11.424-11.838
		c7.283-8.521,12.494-18.095,17.886-27.609c-17.732,11.282-38.865,18.768-57.598,26.672
		C1072.518,596.326,1069.677,597.473,1066.849,598.647z"/>
	<path fill="#DCC615" d="M555.176,770.167c-5.894-1.627-11.731-3.462-17.474-5.606c-0.375-0.14-0.737-0.299-1.111-0.441
		c-23.049,28.139-44.709,55.051-54.075,91.347c-3.937,15.255-5.502,30.957-4.906,46.692c0.194,5.11,1.046,10.287,1.87,15.464
		c17.789-42.033,33.7-85.593,66.419-118.628C547.015,788.48,549.798,778.364,555.176,770.167z"/>
	<path fill="#DCC615" d="M959.983,660.56c16.095-1.128,31.385-6.095,45.63-13.787c3.458-1.867,6.763-4.07,10.021-6.37
		c-25.858,6.035-53.274,8.105-80.252,8.172C943.853,652.069,952.055,656.083,959.983,660.56z"/>
	<path fill="#7E966F" d="M1059.924,454.4c-18.725,15.835-38.169,30.823-59.168,43.385c1.038,0.435,2.091,0.819,3.123,1.276
		c10.815,4.799,24.414,10.248,32.84,19.002c2.383,0.658,4.3,2.571,4.02,5.577c-1.889,20.242-13.476,36.707-25.88,52.274
		c-10.234,12.843-22.393,26.966-37.27,35.038c1.899,0.357,3.798,0.714,5.695,1.068c0.882,0.165,1.764,0.331,2.646,0.497
		c44.929-14.403,63.821-55.321,78.262-97.438c9.738-28.401,15.79-60.971,27.948-89.643
		C1081.681,435.4,1070.955,445.072,1059.924,454.4z"/>
	<path fill="#94AF85" d="M1072.52,586.02c0.274-0.124,0.55-0.241,0.824-0.365c20.643-9.352,40.793-21.492,62.069-29.578
		c-18.213-6.311-35.694-10.426-54.521-13.074C1080.622,558.026,1078.052,571.922,1072.52,586.02z"/>
	<path fill="#DCC615" d="M895.463,775.402c21.684,6.335,42.655,5.137,64.376,4.159c-30.077-13.318-59.833-27.241-90.252-39.889
		C880.691,749.745,889.753,761.683,895.463,775.402z"/>
	<path fill="#C9A614" d="M903.336,788.935c-1.527-0.422-3.045-0.857-4.54-1.322c-0.762,2.6-3.786,3.841-6.444,3.117
		c-9.393,0.994-19.462,0.375-29.5-1.212c5.744,5.402,11.11,11.205,16.049,17.531c3.068,3.929,6.585,8.349,9.73,13.074
		c21.766,7.772,43.229,5.604,65.544,6.604c-6.727-7.387-13.155-14.827-21.534-20.882
		C923.499,799.24,913.419,793.989,903.336,788.935z"/>
	<path fill="#C9A614" d="M918.096,739.753c-5.674,0.45-11.507,0.739-17.407,0.826c18.073,6.765,36.183,14.042,52.998,22.992
		c-1.515-1.48-3.013-2.975-4.601-4.383c-8.586-7.611-18.026-14.062-28-19.669C920.089,739.596,919.08,739.675,918.096,739.753z"/>
	<path fill="#C9A614" d="M824.696,650.282c-1.915,7.923-4.728,15.501-8.26,22.8c31.53,2.251,61.863,11.029,92.162,19.927
		c31.738,9.321,62.291,16.091,94.77,18.835c-21.717-21.011-46.365-38.956-74.491-50.495
		C893.714,646.923,861.204,647.214,824.696,650.282z"/>
	<path fill="#DCC615" d="M812.475,680.684c-4.465,7.945-9.701,15.589-15.435,23.033c14.69,3.185,29.781,8.547,43.791,15.994
		c41.067,15.839,85.628,6.072,128.721-2.083c-17.058-2.716-33.946-7.508-49.895-12.201
		C884.352,695.04,849.4,683.033,812.475,680.684z"/>
	<path fill="#C9A614" d="M307.05,491.286c13.011,13.6,25.79,27.483,40.126,39.73c12.726,10.871,26.599,20.917,41.541,28.55
		c7.901,4.036,16.881,6.083,24.991,9.552c0.003-0.061-0.011-0.116-0.006-0.178c0.445-6.336,1.057-12.783,1.758-19.261
		C378.678,532.441,342.264,512.364,307.05,491.286z"/>
	<path fill="#C9A614" d="M335.621,627.27c7.305-4.517,15.877-9.609,25.06-14.195c-5.135-1.196-10.043-2.531-14.368-3.623
		c-14.601-3.687-28.903-8.837-42.538-15.287c-8.367,2.087-18.052,1.415-27.184,0.175c-6.821,1.819-13.832,2.947-20.63,5.193
		c-8.863,2.929-17.486,6.759-25.922,10.883c17.807,5.478,35.026,13.226,53.049,18.085c11.565,3.118,23.673,5.856,35.697,6.059
		c2.008,0.034,3.898-0.149,5.74-0.242C328.196,631.895,331.924,629.556,335.621,627.27z"/>
	<path fill="#C9A614" d="M524.957,759.244c-7.262-3.315-14.228-7.037-20.883-11.135c-29.231,24.564-57.898,47.499-79.867,79.85
		c-11.595,17.074-21.133,35.512-29.925,54.19c17.561-4.359,34.085-12.108,49.585-21.468c7.997-4.829,17.575-14.051,27.225-17.419
		C480.961,811.673,500.125,781.442,524.957,759.244z"/>
	<path fill="#DCC615" d="M435.352,470.564c-8.216-9.319-15.18-19.779-24.187-28.557c-10.384-10.12-21.855-19.084-34.167-26.741
		c-20.705-12.878-43.982-21.917-67.79-27.636c35.565,36.306,79.65,64.888,118.616,97.582
		C429.893,480.087,432.42,475.207,435.352,470.564z"/>
	<path fill="#DCC615" d="M474.795,338.074c12.432,25.073,25.44,49.838,38.109,74.783c2.117-1.041,4.243-2.071,6.373-3.102
		c-1.687-12.231-0.407-25.433-3.163-37.611c-3.43-15.154-9.093-29.706-16.647-43.277c-9.665-17.363-22.479-32.87-37.557-45.738
		c-0.626-0.324-1.201-0.758-1.641-1.4c-7.351-6.113-15.231-11.587-23.536-16.355c5.925,10.33,12.212,20.442,17.556,31.256
		C461.116,310.448,467.948,324.265,474.795,338.074z"/>
	<path fill="#C9A614" d="M368.062,677.864c19.079-3.802,43.507-10.291,58.532-24.027c-1.981-5.323-3.714-10.752-5.215-16.264
		c-18.209,12.686-39.424,21.626-59.664,30.186c-10.667,4.511-21.654,9.322-32.847,13.183
		C341.898,681.052,354.893,680.487,368.062,677.864z"/>
	<path fill="#DCC615" d="M419.513,397.269c15.038,14.529,31.301,27.795,46.548,42.044c7.456-5.33,15.336-10.06,23.397-14.463
		c-10.426-8.3-19.706-18.599-28.565-28.125c-4.591-4.936-9.112-10.006-13.378-15.276c-12.862-8.205-24.831-17.851-37.664-26.142
		c-15.056-9.729-30.694-14.599-47.711-17.326C381.178,357.832,399.705,378.132,419.513,397.269z"/>
	<path fill="#C9A614" d="M500.663,418.946c1.57-0.797,3.142-1.585,4.716-2.367c-15.98-22.624-28.403-47.912-40.608-72.646
		c-7.192-14.577-14.107-29.285-21.041-43.986c-4.023-8.53-7.339-17.401-10.81-26.149c-2.184,28.832-3.988,57.147,11.518,83.672
		C458.91,382.226,481.366,398.787,500.663,418.946z"/>
	<path fill="#C9A614" d="M421.902,506.688c0.319-1.66,0.594-3.365,0.927-5.007c0.573-2.822,1.29-5.573,2.098-8.28
		c-22.769-15.362-44.469-32.07-66.077-49.048c-17.874-14.044-38.329-27.719-54.084-44.876c9.167,24.17,31.195,45.712,49.184,61.593
		C374.523,479.232,397.468,494.337,421.902,506.688z"/>
	<path fill="#C9A614" d="M385.615,405.499c20.599,12.89,44.991,31.338,58.489,53.316c2.761-3.17,5.693-6.231,8.898-9.103
		c1.757-1.574,3.563-3.081,5.391-4.561c-16.182-10.743-30.854-25.459-44.455-38.574c-20.677-19.937-41.13-40.705-59.622-62.799
		c0.873,19.407,7.539,35.281,16.578,53.307C375.873,399.675,380.784,402.476,385.615,405.499z"/>
	<path fill="#DCC615" d="M395.049,732.987c-9.101,8.119-17.229,16.277-23.035,27.765c-3.814,7.546-6.296,15.142-8.178,22.898
		c10.195-9.515,24.994-15.609,36.509-22.057c10.481-5.87,21.219-11.559,31.367-17.993c12.308-7.804,22.535-17.946,33.657-27.101
		c-4.667-4.989-9.05-10.213-13.126-15.657C436.066,714.97,415.009,726.763,395.049,732.987z"/>
	<path fill="#DCC615" d="M419.225,628.794c-1.28-5.771-2.294-11.625-3.037-17.55c-11.127,3.233-22.671,4.784-33.64,8.91
		c-11.713,4.405-22.85,10.326-33.592,16.705c-17.699,10.511-38.614,22.453-47.928,41.44
		C340.896,663.421,380.187,646.218,419.225,628.794z"/>
	<path fill="#DCC615" d="M349.749,805.652c-6.268-20.003,3.823-47.85,20.018-66.517c-4.786,0.952-9.598,1.871-14.409,2.813
		c-8.992,15.583-22.87,27.219-28.605,45.486c-6.273,19.983-2.994,39.59,2.07,59.226c8.92-2.507,17.87-4.505,26.384-8.468
		c5.635-2.623,10.99-6.557,16.814-8.845c0.057-0.418,0.105-0.849,0.166-1.262c1.187-8.108,4.426-19.806,9.847-29.185
		c-8.822,2.691-17.196,6.336-24.629,12.057C353.957,813.61,349.039,809.403,349.749,805.652z"/>
	<path fill="#C9A614" d="M443.677,688.381c-3.917-6.222-7.458-12.676-10.623-19.325c-15.469,13.292-39.459,19.926-57.951,23.85
		c-6.758,1.434-13.722,2.627-20.773,3.451c-5.628,7.069-16.095,12.457-22.426,16.734c-16.422,11.095-35.059,21.815-39.667,40.583
		c21.726-18.028,49.077-22.402,77.067-28.838C398.433,718.139,419.794,704.226,443.677,688.381z"/>
	<path fill="#C9A614" d="M462.355,755.722c9.107-5.94,15.052-14.21,22.162-21.431c-4.331-3.495-8.5-7.154-12.473-10.989
		c-14.267,19.039-35.457,31.706-55.993,43.125c-9.434,5.245-19.019,10.108-28.485,15.28c-2.252,1.231-4.344,2.557-6.373,3.927
		c11.847-2.964,24.607-4.153,36.184-7.708C433.19,773.071,448.53,764.74,462.355,755.722z"/>
	<path fill="#DCC615" d="M292.241,690.462c-2.846-0.058-5.602-1.923-5.304-5.371c1.387-16.042,9.535-27.952,20.394-37.773
		c-6.965-1.104-13.788-2.906-18.777-4.221c-2.757,2.156-5.63,4.148-8.54,6.095c-0.998,1.471-2.471,2.526-4.294,2.861
		c-5.264,3.505-10.486,7.1-15.132,11.577c-7.951,7.662-14.74,16.348-20.385,25.789c13.392,0.335,26.49,1.91,39.973,2.607
		c5.136,0.265,9.999-0.023,14.759-0.573C294.032,691.137,293.134,690.807,292.241,690.462z"/>
	<path fill="#DCC615" d="M442.678,782.847c-12.614,5.909-26.675,8.399-40.534,11.213c-4.992,12.648-14.034,22.234-15.909,36.939
		c-1.769,13.866,0.241,26.469,2.469,39.362c11.52-31.492,30.68-62.296,54.63-87.822
		C443.117,782.641,442.889,782.748,442.678,782.847z"/>
	<path fill="#94AF85" d="M173.867,670.031c19.671-7.037,38.497-24.056,58.66-34.453c-14.346-6.949-28.088-15.053-40.766-24.801
		c-2.642,1.786-5.285,3.569-7.916,5.36c-15.318,10.427-30.569,21.28-47.013,29.889c-17.824,9.332-38.172,15.185-57.847,13.126
		C107.316,675.979,142.247,681.343,173.867,670.031z"/>
	<path fill="#C9A614" d="M350.548,594.091c12.787,3.154,29.346,2.339,41.935,7.168c7.709-1.679,15.343-2.266,22.607-1.261
		c-0.307-4.65-0.441-9.337-0.41-14.051c-11.783,0.489-24.487-6.557-34.443-11.875c-1.265-0.676-2.511-1.385-3.758-2.093
		c-4.804-1.786-9.533-3.925-13.625-5.259c-10.743-3.501-21.402-7.186-31.819-11.578c-13.803-5.819-26.639-12.978-38.845-21.078
		c-0.781-0.032-1.594-0.212-2.42-0.592c-19.478-8.953-40.283-14.372-61.634-15.435c22.658,22.423,45.719,43.245,74.511,58.071
		C317.884,583.954,333.906,589.986,350.548,594.091z"/>
	<path fill="#DCC615" d="M295.768,523.213c1.029,0.506,1.741,1.167,2.236,1.9c13.525,8.036,27.622,15.07,42.296,20.724
		c-15.712-13.538-32.129-28.983-46.032-45.84c-4.376,0.792-9.26,0.45-13.314,0.71c-5.686,0.365-11.364,0.866-17.042,1.363
		c9.222,6.975,18.765,13.566,28.606,19.676C293.6,522.247,294.689,522.683,295.768,523.213z"/>
	<path fill="#DCC615" d="M418.905,523.892c-15.749-7.469-30.877-16.425-45.115-26.648c-13.434-5.002-26.288-12.655-40.327-16.444
		c-10.019-2.704-20.126-4.798-30.323-6.314c38.786,19.681,76.907,42.291,113.495,65.361
		C417.312,534.506,418.072,529.194,418.905,523.892z"/>
	<path fill="#DCC615" d="M278.596,580.209c-8.742-5.639-17.121-11.969-24.985-18.873c-4.68,1.942-10.366,2.76-14.553,4.103
		c-5.475,1.757-11.066,3.662-16.403,6.049c11.657,2.325,23.204,5.498,34.932,7.39C264.063,579.923,271.286,580.053,278.596,580.209z
		"/>
	<path fill="#3F3229" d="M1148.559,552.127c-18.579-18.879-49.784-20.828-75.806-20.751c6.737-19.13,12.508-38.652,17.871-58.166
		c6.501-23.654,10.539-49.166,23.424-70.367c1.042-1.162,2.039-2.36,2.98-3.603c3.127-4.133-2.718-8.444-6.524-6.524
		c-13.968,7.047-25.751,16.338-40.976,21.076c-13.439,4.183-27.13,5.311-41.154,4.782c-20.15-0.76-37.905-1.169-55.381,5.188
		c6.494-10.354,13.414-22.405,13.915-33.508c1.856-2.624,1.195-6.676-2.433-7.62c-18.815-4.898-45.114,7.157-62.518,14.024
		c-5.038,1.988-10.027,4.1-14.96,6.331c6.326-21.377,9.375-45.797,5.443-66.979c3.09-4.548-0.412-12.357-6.754-10.096
		c-24.596,8.769-50.933,22.61-74.495,40.373c7.603-22.347,9.281-47.79,2.828-68.983c-1.367-4.49-7.414-4.872-9.685-1.674
		c-14.166,2.591-27.966,8.694-40.726,16.812c2.2-10.43,2.362-21.828,2.68-31.096c0.704-20.527-0.513-42.933-8.151-62.21
		c-1.603-4.046-8.228-4.622-9.542-0.81c-26.309,12.68-49.2,36.696-65.419,62.35c-2.083-6.945-4.9-13.692-7.963-20.281
		c-5.559-11.959-11.975-26.116-22.096-34.984c-2.858-2.505-6.646-1.147-7.884,1.582c-3.856,2.636-7.625,5.504-11.249,8.604
		c-3.604-11.918-12.318-24.454-22.681-28.772c-8.059-3.358-15.123,6.302-18.984,12.324c-4.002,6.244-6.738,13.371-8.204,20.711
		c-4.932-3.505-10.279-6.394-15.938-8.358c-2.259-0.784-4.195,0.713-4.992,2.632c-11.722,9.876-20.616,25.366-23.444,41.368
		c-6.035-10.777-13.14-21.097-21.2-30.881c0.047-3.437-4.112-6.333-7.359-3.284c-2.863,2.689-5.375,5.684-7.635,8.88
		c-8.505-14.87-26.908-24.703-41.248-31.743c-2.68-1.315-5.186-0.11-6.452,1.824c-7.883,5.69-11.271,16.702-13.866,25.671
		c-2.091,7.229-3.879,15.343-3.862,23.215c-7.574-4.802-15.655-8.93-24.221-12.329c-1.02-4.01-7.863-4.5-8.93,0.09
		c-7.323,31.489-8.501,67.676,5.305,97.613c-6.702-4.382-13.538-8.522-20.233-12.423c-18.17-10.586-37.946-13.546-58.672-14.478
		c-0.666-0.181-1.327-0.18-1.946-0.005c-2.317,0.3-3.402,2.202-3.324,4.165c-3.917,17.553-2.339,38.977,5.457,56.514
		c-16.742-6.488-34.28-10.472-52.634-11.536c-3.468-2.746-8.884,1.457-7.191,5.562c-2.383,32.098,22.358,60.662,43.602,82.132
		c1.244,1.257,2.554,2.456,3.822,3.692c-0.696-0.176-1.398-0.354-2.069-0.523c-19.857-5.005-40.455-6.764-60.886-6.164
		c-6.041,0.177-6.585,8.232-1.724,10.009c3.199,5.708,6.81,11.305,10.751,16.776c-2.074,0.159-4.065,0.39-5.819,0.545
		c-9.41,0.834-18.528,2.435-27.622,4.999c-4.782,1.349-4.165,9.124,0.881,9.134c3.238,2.934,6.514,5.802,9.822,8.614
		c-14.282-3.141-28.942-4.136-44.174-2.964c-5.317,0.409-5.922,7.755-1.468,9.027c6.894,11.625,15.301,22.453,24.817,32.317
		c-3.472,0.679-6.735,1.632-9.149,2.371c-10.377,3.178-20.015,8.266-27.051,16.654c-3.429,4.088,0.64,11.242,5.651,8.836
		c1.599,0.903,3.226,1.758,4.896,2.546c-24.293,12.727-46.083,30.209-69.155,44.891c-25.958,16.518-59.347,32.555-89.589,17.131
		c-5.338-2.723-10.005,4.737-5.374,8.027c18.289,38.12,53.43,57.668,93.226,68.267c42.333,11.275,94.838,22.27,140.215,14.852
		c-5.986,9.752-8.224,20.935-5.111,34.536c1.293,5.648,10.204,5.032,11.024-0.209c12.155-10.739,26.569-16.752,41.818-20.885
		c-9.356,11.47-16.114,26.352-19.682,38.685c-6.686,23.107-3.382,48.461,7.585,69.695c1.032,1.999,2.883,2.653,4.665,2.401
		c12.372,0.421,32.269-3.922,45.19-12.921c-0.275,16.082,2.558,33.311,11.465,45.643c0.615,1.947,2.203,3.536,4.597,3.373
		c21.41-1.45,40.333-7.961,59.06-18.356c5.331-2.959,12.985-6.654,19.961-11.098c-1.856,10.412-2.779,21-2.743,31.554
		c0.046,13.63-0.251,33.492,7.423,45.223c1.757,2.686,6.269,3.457,8.668,1.449c5.58,0.846,11.153-0.093,16.582-2.136
		c1.685,14.076,10.344,29.619,21.838,35.765c1.315,1.805,3.647,2.704,6.175,1.065c15.179-9.84,29.838-21.185,42.399-34.242
		c2.34-2.432,4.818-5.037,7.31-7.768c9.164,12.023,18.531,24.363,29.188,34.841c9.704,9.542,24.411,23.816,38.755,23.722
		c0.089-0.001,0.173-0.033,0.262-0.04c1.077,0.078,2.229-0.294,3.286-1.342c15.531-15.415,26.52-45.234,22.845-67.902
		c0.231-0.371,0.443-0.767,0.617-1.208c1.081-2.73,2.039-5.472,2.911-8.221c16.654,28.049,34.959,53.97,68.444,64.373
		c4.554,1.415,7.474-2.189,7.522-5.866c7.976-13.482,5.611-29.879,3.581-44.942c-0.209-1.551-0.453-3.096-0.689-4.643
		c17.299,11.689,37.993,22.907,57.97,23.818c0.126,0.103,0.247,0.213,0.373,0.316c0.848,0.689,1.915,0.898,2.938,0.776
		c0.038-0.005,0.074-0.005,0.111-0.011c2.204-0.318,4.143-2.208,3.181-4.407c1.859-12.249-2.476-25.628-7.64-37.795
		c9.146,5.135,18.667,9.471,28.804,12.76c13.189,4.279,31.055,10.752,44.729,6.146c2.407-0.811,3.433-3.721,2.207-5.713
		c1.4-13.087-5.814-28.56-10.527-39.884c-4.51-10.837-9.798-21.455-15.912-31.531c13.418,2.997,26.98,3.586,38.687-0.185
		c3.094-0.997,3.538-3.985,2.197-6.052c-0.134-2.72-0.678-5.428-1.554-8.099c22.368,7.211,49.189,9.575,69.921,1.586
		c0.785-0.303,1.353-0.763,1.824-1.275c0.104-0.103,0.189-0.216,0.282-0.329c0.143-0.19,0.287-0.372,0.392-0.577
		c0.175-0.307,0.289-0.639,0.376-0.991c0.011-0.05,0.03-0.096,0.039-0.146c0.08-0.389,0.085-0.797,0.037-1.225
		c-0.005-0.048-0.007-0.094-0.014-0.142c-0.025-0.172-0.001-0.332-0.049-0.508c-4.193-15.24-16.216-27.352-30.394-36.389
		c14.63,0.364,29.153-1.706,41.94-7.133c3.31-1.405,2.452-5.76-0.085-7.419c-7.127-16.988-22.324-31.916-39.19-41.776
		c24.932-2.253,51.462-5.902,73.284-15.752c6.457,3.208,14.271-5.831,8.358-12.04c-13.47-14.142-28.245-27.03-44.269-38.071
		c9.49-1.53,18.724-4.569,27.774-8.747c1.772-0.818,3.628-1.702,5.531-2.651c11.547-0.578,23.353-4.164,34.255-7.026
		c16.344-4.29,32.221-11.385,46.377-20.597c25.787-16.782,53.807-45.76,57.73-77.656
		C1150.155,553.816,1149.52,552.768,1148.559,552.127z M979.263,464.152c3.073-10.198,6.704-20.66,7.078-31.366
		c21.474-3.142,42.882,0.854,65.789-2.028c6.777-0.853,13.891-2.274,20.931-4.312c-5.88,5.443-11.791,10.851-17.794,16.16
		c-20.776,18.373-42.612,36.064-66.277,50.682c-5.776-2.007-11.615-3.827-17.503-5.532
		C974.512,480.044,976.889,472.03,979.263,464.152z M920.981,602.585c-31.848-2.27-65.917,1.316-93.718,17.691
		c-0.108-1.679-0.176-3.342-0.37-5.053c-0.278-2.455-0.598-4.908-0.94-7.359c47.925-14.063,95.463-29.909,141.505-49.318
		c17.018-7.174,33.731-15.652,50.987-22.482c-2.549,3.029-5.062,6.104-7.743,9.02c-8.886,9.665-18.657,18.617-29.168,26.487
		C963.223,585.281,942.698,595.56,920.981,602.585z M931.101,617.828c20.079,2.851,39.775,7.697,59.646,11.654
		c5.081,1.012,10.642,2.341,16.38,3.536c-33.625,5.667-68.189,6.84-102.219,5.501c-25.724-6.373-53.491-7.859-78.099,0.37
		c0.231-1.897,0.385-3.824,0.507-5.763C858.363,614.354,895.818,612.818,931.101,617.828z M964.622,548.255
		c-46.055,18.647-92.664,35.258-140.227,49.592c-0.779-4.606-1.628-9.205-2.527-13.797c52.852,5.484,110.67-29.672,136.893-77.125
		c19.318,7.26,39.721,13.875,59.752,19.577C1000.048,531.931,981.912,541.254,964.622,548.255z M892.189,524.442
		c19.576-12.233,39.275-24.877,57.828-38.836c-11.384,21.664-22.508,42.282-44.273,57.319c-26.789,18.508-55.474,23.941-86.305,29.1
		c-0.439-2.133-0.875-4.264-1.314-6.394C844.339,556.557,869.214,538.799,892.189,524.442z M816.184,556.07
		c-0.256-1.282-0.518-2.566-0.768-3.848c-0.462-2.367-0.929-4.736-1.402-7.104c7.026-8.624,13.403-17.573,21.903-25.026
		c10.259-8.995,22.005-16.261,34.247-22.223c23.895-11.636,48.54-17.038,74.189-19.842c-19.046,11.362-37.565,23.717-56.201,35.642
		C865.74,528.01,841.622,546.301,816.184,556.07z M958.309,425.098c-7.94,13.871-16.961,27.133-27.74,38.924
		c-23.589,3.403-46.874,11.036-67.763,21.259c-2.963,1.45-6.011,3.03-9.091,4.732c37.116-30.646,76.275-59.207,115.011-87.491
		C965.138,410.226,962.12,418.44,958.309,425.098z M933.134,408.351c4.913-1.799,10.382-3.158,16.005-4.451
		c-19.218,12.853-37.754,26.872-56.009,40.78c-29.426,22.418-59.742,45.12-85.941,71.476c-1.088-3.777-2.25-7.531-3.567-11.233
		c18.26-29.428,46.955-52.352,76.008-70.384C896.533,424.048,914.449,415.194,933.134,408.351z M891.045,410.762
		c-8.735,4.556-17.26,9.512-25.507,14.921c-17.684,11.599-34.151,25.164-48.979,40.238c-6.715,6.826-14.329,14.642-19.495,23.431
		c-1.291-2.61-2.688-5.126-4.161-7.575c20.692-22.597,39.352-47.368,58.692-71.067c17.442-21.373,34.845-42.567,50.703-64.93
		C900.419,367.926,896.966,389.009,891.045,410.762z M513.869,599.978c-1.131-6.193,6.349-6.715,10.57-6.425
		c7.998,0.549,14.902,4.92,18.567,12.095c14.438,28.269-38.1,13.014-28.671-1.86C515.366,602.161,514.153,601.533,513.869,599.978z
		 M520.176,545.816c1.196-2.235,0.335-3.76,0.408-6.121c-0.145-1.199,1.424-2.581,3.176-3.297c3.347-1.368,8.269-0.805,11.755-0.343
		c6.619,0.877,15.482,3.57,16.179,11.41C553.793,571.065,513.996,557.368,520.176,545.816z M547.443,510.529
		c-5.086-4.747-2.382-9.106,0.326-11.109c1.612-1.243,2.484-2.308,4.618-2.627c5.412-0.697,13.625,2.392,16.78,6.116
		c5.103,6.023-1.333,12.375-7.926,12.444C556.71,515.4,551.071,513.802,547.443,510.529z M569.352,613.545
		c1.748-0.993,2.615-2.358,2.826-3.775c0.365-2.448,1.935-4.571,4.374-4.99c0.684-0.117,1.402-0.202,2.163-0.25
		c5.981-0.378,17.285,5.297,17.703,12.853c0.451,8.156-10.315,10.492-16.315,10.234
		C574.479,627.375,558.821,619.527,569.352,613.545z M563.869,587.222c-2.528-0.833-4.855-2.357-6.596-4.375
		c-1.094-1.268-2.57-4.672-1.67-8.184c1.304-5.093,6.632-9.144,12.063-7.418c4.946,1.572,5.76,8.141,5.757,12.608
		C573.419,586.24,570.498,589.405,563.869,587.222z M591.057,543.045c-1.784,2.073-4.917,2.736-7.523,2.584
		c-2.625-0.153-5.31-0.936-7.57-2.289c-2.524-1.512-5.362-3.776-6.023-6.807c-0.515-2.362,1.757-4.426,3.684-5.337
		c3.163-1.495,6.969-0.334,10.142,0.531C588.153,532.922,595.311,538.101,591.057,543.045z M555.767,648.685
		c10.132-4.32,21.422-4.413,28.646,5.878c6.628,9.441-0.203,18.343-11.111,16.641c-6.671-1.041-18.393-4.405-20.541-16.522
		C552.508,653.251,553.191,650.306,555.767,648.685z M566.497,773.003c4.589,1.044,9.204,1.981,13.838,2.821
		c-2.406,28.628-0.993,57.404,4.953,85.574c2.163,10.25,4.881,21.232,8.72,31.718c-14.504-15.007-26.675-31.91-31.639-52.844
		C557.093,818.022,557.507,794.014,566.497,773.003z M586.8,776.951c4.511,0.74,9.032,1.406,13.555,2.024
		c33.066,36.72,38.502,89.235,11.175,130.771c-0.812-0.722-1.619-1.455-2.429-2.184C590.697,867.162,584.068,821.099,586.8,776.951z
		 M625.686,537.077c-2.452-0.04-4.954-0.305-7.163-1.453c-0.821-0.427-1.46-1.015-1.705-1.915c-0.698-2.562-1.727-5.697-0.756-8.339
		c1.227-3.338,5.822-4.104,8.873-4.296c3.51-0.221,8.419,0.537,11.628,2.888c1.373,1.085,2.099,2.03,2.84,3.665
		c0.242,0.679,0.398,1.41,0.427,2.214c0.131,3.746-3.171,5.632-6.384,6.433C630.916,536.905,628.29,537.119,625.686,537.077z
		 M621.378,635.998c-2.535,1.883-9.393-0.132-11.31-2.128c-4.049-4.217,2.273-8.4,5.914-8.996
		C621.35,623.996,631.667,628.355,621.378,635.998z M605.047,498.876c-2.924-1.67-3.819-5.553-1.69-8.161
		c1.962-2.404,4.938-3.732,9.291-4.094c6.025-0.501,15.462,2.006,15.092,9.709C627.29,505.673,613.568,503.742,605.047,498.876z
		 M607.336,677.253c-1.863-3.954-1.162-6.902,0.6-9.106c7.685-9.507,29.336-2.71,31.525,9.205c1.547,8.414-8.937,8.179-14.94,8.111
		C621.183,685.425,611.394,685.866,607.336,677.253z M642.32,613.112c1.104-0.426,1.938-1.061,2.571-1.798
		c2.353-0.277,4.71-0.11,7.578,0.781c3.537,1.098,9.775,4.132,7.637,8.812c-1.711,3.744-8.539,4.178-11.923,3.697
		C643.231,623.899,633.017,616.703,642.32,613.112z M657.21,551.337c-3.553,0.2-5.993-3.58-4.523-6.821
		c0.005-0.011,0.01-0.023,0.016-0.034c1.758-3.861,4.361-5.237,8.522-4.185c1.367,0.346,3.298,0.988,4.483,1.8
		c1.335,0.915,0.983,1.921,0.679,3.553C665.673,549.481,660.965,551.126,657.21,551.337z M661.338,581.075
		c0.046-0.229,0.1-0.454,0.141-0.686c1.382-1.265,3.191-1.244,5.355-0.739c3.982,0.928,8.137,4.23,7.563,8.719
		c-0.617,4.823-5.93,4.958-9.729,3.997c-2.112-0.534-2.589-0.532-3.104-2.54C660.813,586.894,661.993,584.02,661.338,581.075z
		 M670.344,518.736c-3.947-0.17-7.927-0.988-10.952-2.525c-2.285-1.274-4.659-3.163-5.104-6.21c-0.213-1.46-0.007-3.009,0.684-4.316
		c0.909-1.722,2.168-3.381,2.918-5.171c1.116-2.006,2.414-3.796,4.665-4.795c3.318-1.474,8.296-0.822,11.81-0.319
		c5.902,0.845,15.857,4.245,15.432,11.936C689.294,516.424,677.401,519.039,670.344,518.736z M689.933,552.019
		c2.444-0.244,3.995-1.869,4.427-3.717c1.098-4.703,6.117-7.468,10.887-6.708c7.3,1.164,12.601,6.117,8.809,15.283
		c-3.38,8.169-10.375,11.704-18.92,10.992c-4.029-0.336-10.804-1.642-13.024-5.569C678.766,556.383,685.137,552.499,689.933,552.019
		z M687.89,609.303c3.01-2.912,5.196-6.779,6.056-11.578c0.209-1.166,0.875-2.194,1.817-2.912c2.314-1.764,7.422-1.105,10.302-0.862
		c7.974,0.671,19.256,4.618,17.55,14.486c-1.409,8.146-8.877,11.929-16.421,12.73c-6.949,0.738-13.348-0.58-18.895-4.939
		C686.117,614.513,685.895,611.233,687.89,609.303z M721.547,771.733c30.58,25.423,60.927,52.945,93.444,76.158
		c-20.457-3.828-40.717-6.977-58.86-19.258c-19.444-13.162-34.532-32.049-48.302-50.98
		C712.521,775.95,717.094,773.968,721.547,771.733z M729.586,767.326c2.381-1.394,4.722-2.86,7.032-4.385
		c28.368,13.384,52.171,39.185,71.547,65.958C782.896,807.368,755.4,787.768,729.586,767.326z M750.001,753.156
		c4.387-3.53,8.649-7.238,12.757-11.12c18.722,16.816,39.537,30.096,63.653,38.211c4.317,1.453,8.878,2.871,13.578,4.187
		c10.739,8.974,20.657,19.009,29.105,30.182c2.776,3.671,5.227,7.904,7.704,12.178c-16.113-10.974-33.353-20.538-50.019-30.268
		C801.407,781.713,775.899,767.053,750.001,753.156z M834.128,769.517c-23.748-6.915-45.015-19.25-64.296-34.474
		c2.805-2.871,5.56-5.786,8.229-8.758c0.561-0.625,1.109-1.255,1.667-1.88c18.391,10.672,35.736,23.369,53.574,34.869
		c7.318,4.718,15.023,9.913,23.036,14.676C848.805,772.862,841.319,771.611,834.128,769.517z M834.775,748.922
		c-16.433-10.223-32.493-21.444-49.39-30.972c1.854-2.149,3.676-4.312,5.47-6.486c18.001,5.509,36.439,12.099,51.811,22.859
		c17.361,12.151,27.734,27.337,39.042,43.568C865.282,770.073,849.574,758.129,834.775,748.922z M884.227,353.271
		c-14.714,17.17-29.1,34.661-43.355,52.347c-17.885,22.189-37.462,44.047-53.629,67.705c-3.869-5.251-8.123-10.146-12.741-14.688
		c13.998-24.106,28.844-47.513,49.616-66.558C842.12,375.572,863.293,364.734,884.227,353.271z M812.874,381.431
		c-21.487,19.572-39.043,42.701-48.316,68.298c-4.369-3.588-8.927-6.975-13.638-10.182c18.939-44.592,47.822-82.67,72.88-123.718
		C823.744,338.56,821.251,359.719,812.874,381.431z M813.603,312.722c-13.472,19.164-26.737,38.503-39.105,58.379
		c-11.712,18.822-26.338,40.596-31.823,63.101c-6.384-3.98-12.941-7.717-19.558-11.288c4.654-26.968,17.924-50.05,36.813-70.004
		C775.979,335.956,794.469,324.444,813.603,312.722z M771.246,242.747c1.461,11.829,2.601,23.652,2.287,35.752
		c-0.376,14.498-5.435,30.215-5.101,44.859c-9.856,7.948-18.791,16.829-26.367,25.772c-5.9,6.964-11.801,14.826-16.925,23.261
		c5.765-22.859,12.832-45.372,21.113-67.63C753.951,284.072,763.779,263.706,771.246,242.747z M707.555,303.531
		c8.315-15.704,18.716-30.449,30.585-43.661c7.585-8.443,16.134-15.865,24.485-23.476c-22.3,58.698-49.052,114.859-55.492,178.158
		c-0.961-0.492-1.926-0.989-2.884-1.477c-4.764-2.429-9.553-4.778-14.366-7.03C684.899,371.382,691.197,334.425,707.555,303.531z
		 M666.69,317.157c1.602-24.202,2.554-48.761,5.265-72.957c8.17,16.381,15.874,32.861,23.617,49.51
		c-1.529,2.855-3.003,5.71-4.351,8.551c-14.206,29.925-19.851,65.428-13.747,98.283c-5.126-2.157-10.285-4.155-15.479-5.969
		C661.519,368.885,665.003,342.65,666.69,317.157z M663.363,243.513c-2.896,23.191-4.248,46.714-5.872,69.93
		c-1.803,25.783-4.448,52.533-3.262,78.58c-6.421-1.98-12.893-3.672-19.436-4.936c2.924-26.234-3.916-51.635-3.395-78.117
		C631.953,280.77,647.486,263.164,663.363,243.513z M628.249,220.017c1.461,1.142,2.922,2.178,4.287,3.557
		c5.907,5.969,8.757,13.33,12.646,20.317c-6.54,6.769-12.314,14.301-16.898,22.426c-3.108-5.324-7.231-10.279-10.056-13.551
		c-0.959-1.112-1.957-2.2-2.981-3.268C615.953,238.962,620.186,227.195,628.249,220.017z M602.973,252.106
		c0.4,2.344,2.031,3.775,3.975,4.327c1.175,1.366,2.328,2.752,3.439,4.176c3.719,4.765,6.926,9.821,9.874,15.089
		c0.708,1.266,1.312,2.489,1.944,3.653c-1.723,4.648-3.064,9.429-3.896,14.334c-5.176,30.533,5.035,61.051,5.094,91.671
		c-4.979-0.588-9.995-0.936-15.055-0.995c-7.427-22.709-8.69-47.813-11.026-71.292c-2.321-23.333-3.139-46.789-5.452-70.1
		C595.93,245.55,599.594,248.665,602.973,252.106z M571.124,299.334c0.684-17.247,4.702-31.988,11.35-46.708
		c-0.171,22.32,1.698,44.752,3.904,66.906c2.129,21.382,4.917,44.62,12.968,65.037c-5.549,0.308-11.151,0.976-16.807,2.032
		c3.554-30.223-0.7-59.719-11.439-87.087C571.105,299.453,571.121,299.398,571.124,299.334z M569.813,389.578
		c-4.976,1.382-9.893,2.975-14.763,4.732c-3.132-23.888-6.054-47.741-8.525-71.741c-2.131-20.698-2.883-42.017-6.163-62.64
		C564.135,299.438,576.708,343.075,569.813,389.578z M530.415,256.64c-0.954,23.317,2.313,47.354,4.57,70.427
		c2.268,23.182,4.302,48.094,10.781,70.793c-4.759,1.924-9.483,3.946-14.158,6.077c0.482-10.299-1.792-21.414-3.657-30.621
		c-3.539-17.471-10.035-34.582-18.899-50.051c-0.409-0.713-0.846-1.402-1.263-2.108C506.325,300.784,517.853,274.666,530.415,256.64
		z M475.711,249.756c1.852-6.627,5.357-13.093,7.195-19.79c6.45,3.754,12.696,7.807,18.38,12.697
		c5.998,5.16,10.684,11.808,16.468,17.134c-3.903,7.396-7.038,15.295-10.181,22.826c-3.612,8.654-6.627,17.252-7.884,26.128
		c-8.547-11.904-18.511-22.431-29.833-31.297C472.553,268.495,473.187,258.79,475.711,249.756z M460.268,281.73
		c0.44,0.641,1.015,1.076,1.641,1.4c15.078,12.868,27.892,28.375,37.557,45.738c7.554,13.571,13.218,28.123,16.647,43.277
		c2.756,12.177,1.476,25.38,3.163,37.611c-2.13,1.031-4.256,2.061-6.373,3.102c-12.668-24.946-25.676-49.71-38.109-74.783
		c-6.847-13.809-13.679-27.625-20.507-41.443c-5.344-10.814-11.631-20.927-17.556-31.256
		C445.036,270.143,452.916,275.617,460.268,281.73z M432.92,273.798c3.471,8.748,6.786,17.619,10.81,26.149
		c6.934,14.701,13.849,29.409,21.041,43.986c12.204,24.734,24.628,50.022,40.608,72.646c-1.573,0.782-3.146,1.571-4.716,2.367
		c-19.297-20.16-41.753-36.72-56.224-61.476C428.932,330.945,430.736,302.63,432.92,273.798z M409.851,355.306
		c12.832,8.292,24.802,17.937,37.664,26.142c4.265,5.27,8.787,10.34,13.378,15.276c8.859,9.526,18.139,19.825,28.565,28.125
		c-8.061,4.404-15.941,9.134-23.397,14.463c-15.247-14.249-31.51-27.516-46.548-42.044c-19.808-19.137-38.336-39.437-57.373-59.288
		C379.158,340.707,394.795,345.577,409.851,355.306z M413.937,406.577c13.601,13.114,28.273,27.831,44.455,38.574
		c-1.827,1.48-3.634,2.987-5.391,4.561c-3.205,2.872-6.136,5.933-8.898,9.103c-13.498-21.978-37.89-40.426-58.489-53.316
		c-4.831-3.023-9.742-5.824-14.723-8.414c-9.039-18.026-15.705-33.9-16.578-53.307C372.807,365.872,393.259,386.639,413.937,406.577
		z M465.368,716.498c-11.122,9.155-21.349,19.297-33.657,27.101c-10.148,6.434-20.886,12.123-31.367,17.993
		c-11.514,6.449-26.314,12.543-36.509,22.057c1.882-7.756,4.364-15.352,8.178-22.898c5.806-11.488,13.934-19.646,23.035-27.765
		c19.96-6.224,41.017-18.017,57.193-32.146C456.318,706.285,460.701,711.509,465.368,716.498z M376.998,415.265
		c12.312,7.658,23.783,16.621,34.167,26.741c9.007,8.778,15.971,19.238,24.187,28.557c-2.932,4.643-5.459,9.522-7.528,14.647
		c-38.966-32.694-83.051-61.276-118.616-97.582C333.016,393.349,356.292,402.387,376.998,415.265z M348.955,636.859
		c10.742-6.379,21.88-12.3,33.592-16.705c10.969-4.126,22.514-5.677,33.64-8.91c0.743,5.925,1.757,11.779,3.037,17.55
		c-39.038,17.425-78.329,34.627-118.197,49.505C310.342,659.311,331.257,647.369,348.955,636.859z M283.089,628.502
		c-18.024-4.859-35.242-12.607-53.049-18.085c8.435-4.124,17.059-7.955,25.922-10.883c6.798-2.247,13.809-3.374,20.63-5.193
		c9.132,1.24,18.817,1.912,27.184-0.175c13.635,6.449,27.937,11.6,42.538,15.287c4.325,1.092,9.234,2.427,14.368,3.623
		c-9.183,4.586-17.756,9.678-25.06,14.195c-3.697,2.286-7.426,4.625-11.095,7.049c-1.841,0.093-3.732,0.276-5.74,0.242
		C306.762,634.358,294.654,631.62,283.089,628.502z M413.708,569.118c-8.11-3.468-17.091-5.516-24.991-9.552
		c-14.942-7.633-28.815-17.679-41.541-28.55c-14.337-12.247-27.115-26.13-40.126-39.73c35.214,21.077,71.628,41.154,108.41,58.393
		c-0.701,6.478-1.313,12.925-1.758,19.261C413.697,569.002,413.711,569.056,413.708,569.118z M361.714,667.758
		c20.24-8.56,41.455-17.5,59.664-30.186c1.501,5.513,3.234,10.942,5.215,16.264c-15.025,13.736-39.453,20.226-58.532,24.027
		c-13.168,2.624-26.164,3.189-39.195,3.077C340.06,677.08,351.047,672.269,361.714,667.758z M304.767,399.476
		c15.754,17.157,36.21,30.832,54.084,44.876c21.608,16.978,43.308,33.685,66.077,49.048c-0.808,2.707-1.525,5.459-2.098,8.28
		c-0.333,1.642-0.608,3.347-0.927,5.007c-24.435-12.351-47.379-27.456-67.951-45.618
		C335.961,445.188,313.934,423.646,304.767,399.476z M333.464,480.799c14.039,3.788,26.893,11.442,40.327,16.444
		c14.238,10.223,29.366,19.179,45.115,26.648c-0.833,5.303-1.593,10.614-2.27,15.954c-36.588-23.07-74.709-45.68-113.495-65.361
		C313.338,476.001,323.445,478.096,333.464,480.799z M280.954,500.707c4.054-0.26,8.938,0.082,13.314-0.71
		c13.903,16.857,30.321,32.302,46.032,45.84c-14.673-5.653-28.771-12.688-42.296-20.724c-0.495-0.733-1.207-1.395-2.236-1.9
		c-1.078-0.53-2.168-0.965-3.25-1.466c-9.841-6.11-19.384-12.701-28.606-19.676C269.59,501.573,275.268,501.072,280.954,500.707z
		 M228.137,518.038c21.351,1.063,42.155,6.482,61.634,15.435c0.826,0.38,1.638,0.559,2.42,0.592
		c12.206,8.101,25.042,15.259,38.845,21.078c10.417,4.392,21.076,8.076,31.819,11.578c4.092,1.334,8.821,3.472,13.625,5.259
		c1.247,0.708,2.494,1.417,3.758,2.093c9.956,5.318,22.661,12.364,34.443,11.875c-0.032,4.714,0.103,9.4,0.41,14.051
		c-7.265-1.005-14.899-0.418-22.607,1.261c-12.589-4.829-29.148-4.014-41.935-7.168c-16.642-4.105-32.664-10.137-47.9-17.983
		C273.856,561.283,250.795,540.461,228.137,518.038z M239.058,565.439c4.187-1.344,9.873-2.161,14.553-4.103
		c7.864,6.905,16.243,13.235,24.985,18.873c-7.309-0.156-14.533-0.286-21.008-1.331c-11.728-1.893-23.275-5.065-34.932-7.39
		C227.992,569.101,233.583,567.196,239.058,565.439z M136.833,646.026c16.444-8.609,31.694-19.463,47.013-29.889
		c2.631-1.791,5.274-3.574,7.916-5.36c12.677,9.747,26.419,17.852,40.766,24.801c-20.163,10.398-38.989,27.416-58.66,34.453
		c-31.62,11.312-66.551,5.949-94.881-10.878C98.661,661.212,119.009,655.358,136.833,646.026z M211.325,715.522
		c0.087,0.683,0.287,1.296,0.545,1.858c-19.106-2.324-38.091-5.941-56.765-10.504c-24.97-6.101-49.059-14.918-68.533-30.039
		c21.267,10.542,45.786,14.398,69.819,10.903c34.351-4.994,59.337-28.867,89.06-43.402c-6.763,5.828-12.655,13.02-16.987,18.925
		C217.847,677.741,208.986,697.216,211.325,715.522z M280.176,692.026c-13.482-0.697-26.58-2.272-39.973-2.607
		c5.645-9.44,12.434-18.126,20.385-25.789c4.646-4.477,9.868-8.072,15.132-11.577c1.824-0.335,3.297-1.389,4.294-2.861
		c2.909-1.947,5.782-3.939,8.54-6.095c4.989,1.315,11.813,3.117,18.777,4.221c-10.859,9.822-19.008,21.732-20.394,37.773
		c-0.298,3.448,2.458,5.313,5.304,5.371c0.893,0.344,1.791,0.674,2.693,0.991C290.175,692.003,285.311,692.291,280.176,692.026z
		 M292.238,753.674c4.608-18.768,23.245-29.488,39.667-40.583c6.331-4.277,16.797-9.665,22.426-16.734
		c7.051-0.824,14.015-2.017,20.773-3.451c18.491-3.924,42.481-10.558,57.951-23.85c3.165,6.649,6.706,13.103,10.623,19.325
		c-23.883,15.845-45.244,29.757-74.373,36.455C341.315,731.272,313.964,735.646,292.238,753.674z M372.187,828.086
		c-0.06,0.412-0.108,0.844-0.166,1.262c-5.823,2.288-11.178,6.222-16.814,8.845c-8.514,3.963-17.464,5.961-26.384,8.468
		c-5.064-19.635-8.342-39.243-2.07-59.226c5.734-18.268,19.613-29.904,28.605-45.486c4.81-0.942,9.623-1.861,14.409-2.813
		c-16.195,18.667-26.287,46.514-20.018,66.517c-0.71,3.751,4.207,7.958,7.655,5.305c7.433-5.72,15.808-9.366,24.629-12.057
		C376.613,808.28,373.374,819.977,372.187,828.086z M381.193,785.633c2.029-1.369,4.12-2.696,6.373-3.927
		c9.466-5.172,19.051-10.034,28.485-15.28c20.536-11.419,41.726-24.086,55.993-43.125c3.973,3.836,8.142,7.494,12.473,10.989
		c-7.11,7.221-13.055,15.49-22.162,21.431c-13.824,9.018-29.165,17.349-44.978,22.204C405.8,781.48,393.039,782.67,381.193,785.633z
		 M386.235,830.998c1.875-14.705,10.918-24.291,15.909-36.939c13.859-2.814,27.92-5.304,40.534-11.213
		c0.211-0.099,0.439-0.206,0.656-0.308c-23.95,25.526-43.11,56.329-54.63,87.822C386.475,857.467,384.466,844.865,386.235,830.998z
		 M471.092,843.261c-9.651,3.368-19.228,12.59-27.225,17.419c-15.5,9.36-32.024,17.11-49.585,21.468
		c8.792-18.678,18.33-37.115,29.925-54.19c21.969-32.351,50.636-55.286,79.867-79.85c6.655,4.098,13.621,7.82,20.883,11.135
		C500.125,781.442,480.961,811.673,471.092,843.261z M477.61,902.158c-0.596-15.735,0.969-31.437,4.906-46.692
		c9.366-36.297,31.026-63.208,54.075-91.347c0.374,0.142,0.736,0.301,1.111,0.441c5.743,2.145,11.58,3.979,17.474,5.606
		c-5.379,8.198-8.161,18.313-9.278,28.827c-32.719,33.036-48.63,76.595-66.419,118.628
		C478.656,912.445,477.804,907.268,477.61,902.158z M482.609,933.514c7.448-16.834,13.681-34.197,21.62-50.835
		c11.564-24.232,26.228-45.72,41.105-67.558c0.239,8.179,1.154,16.096,2.326,22.975c2.203,12.922,6.969,24.999,13.462,36.174
		c-12.656,8.163-23.797,21.516-35.339,30.515C514.238,913.786,498.12,928.516,482.609,933.514z M556.954,933.773
		c-10.583,11.818-21.861,22.33-34.404,31.913c-3.164-4.854-7.26-9.323-10.162-14.275c-2.913-4.971-5.28-10.377-6.162-16.066
		c7.413-4.439,14.347-10.021,20.382-14.526c13.059-9.747,31.182-21.188,42.092-34.919c3.972,5.47,8.342,10.684,12.989,15.637
		C572.824,911.538,565.855,923.834,556.954,933.773z M651.659,953.595c-2.642,10.109-7.086,19.402-11.423,28.819
		c-8.79-8.476-21.333-14.233-30.014-22.881c-10.464-10.424-19.181-21.999-29.473-32.548c4.069-5.018,7.818-10.336,10.677-15.807
		c4.692,4.332,9.56,8.433,14.522,12.275c5.678,4.397,13.348-0.998,12.106-6.427c2.801-3.515,5.346-7.198,7.667-11.005
		c7.237,8.833,19.53,16,30.327,18.224c0.057,0.132,0.118,0.261,0.185,0.386C653.984,934.052,654.133,944.127,651.659,953.595z
		 M657.77,913.677c-4.278-2.762-9.023-4.972-13.232-7.648c-4.85-3.083-8.687-7.23-13.002-10.841
		c16.809-36.107,14.073-80.702-9.678-113.376c9.702,1.197,19.486,2.206,29.253,2.688C661.565,827.31,669.723,870.618,657.77,913.677
		z M659.877,657.679c-1.129-3.27,0.155-7.62,2.364-10.167c3.003-3.463,7.867-6.102,12.766-6.179
		c3.961-0.062,7.918,1.138,11.568,2.58c5.61,2.216,10.442,6.78,9.819,13.258c-0.144,1.499-0.557,2.967-1.118,4.361
		c-4.029,10.008-14.938,10.75-23.992,7.301C666.426,666.982,661.599,662.668,659.877,657.679z M674.032,905.684
		c4.654-19.84,4.462-40.047,1.607-60.128c13.715,40.471,30.8,79.788,53.521,115.914
		C705.795,948.898,689.252,927.494,674.032,905.684z M740.121,962.85c-9.222-17.709-18.94-35.105-27.326-53.284
		c-18.561-40.24-32.746-82.151-44.371-124.863c2.511-0.071,5.011-0.226,7.51-0.402c7.102,11.552,15.772,22.271,22.567,34.079
		c9.04,15.709,16.836,32.146,23.19,49.12c5.593,14.941,10.085,30.292,13.33,45.915C737.734,926.478,743.299,947.594,740.121,962.85z
		 M747.858,910.403c-2.661-13.172-6.197-26.161-10.483-38.908c-0.197-0.585-0.408-1.189-0.608-1.779
		c17.466,20.876,34.324,42.756,53.456,61.803C775.999,924.786,761.335,918.782,747.858,910.403z M726.59,842.15
		c-8.663-21.398-19.59-43.124-33.674-60.194c2.078-0.453,4.128-0.977,6.162-1.541c9.597,22.412,27.87,42.032,47.079,56.276
		c4.422,3.279,9.135,6.152,14.044,8.707c4.552,15.762,16.812,29.852,24.057,44.225c5.502,10.915,9.766,22.287,14.1,33.627
		C775.832,895.168,751.398,867.931,726.59,842.15z M862.566,881.717c4.626,10.755,7.172,22.629,11.157,33.649
		c-10.155-3.261-21.787-3.907-31.808-6.906c-14.103-4.22-28.044-9.416-41.181-16.096c-4.935-10.779-10.627-21.321-17.238-31.168
		c-1.902-2.834-4.008-5.598-6.096-8.385c17.597,6.194,36.649,9.283,54.662,11.141c5.128,3.324,13.262-2.509,9.365-8.838
		c-3.056-4.964-6.249-9.82-9.52-14.612c3.657,1.554,7.428,2.993,11.276,4.287C850.81,856.444,857.065,868.929,862.566,881.717z
		 M820.221,824.366c-10.101-13.15-21.096-25.584-33.132-37.188c-2.153-2.076-4.315-4.105-6.494-6.082
		c32.586,18.453,64.806,37.688,96.649,57.254C857.57,836.078,838.592,833.21,820.221,824.366z M954.174,826.728
		c-22.315-1.001-43.777,1.167-65.544-6.604c-3.145-4.725-6.662-9.145-9.73-13.074c-4.939-6.326-10.305-12.129-16.049-17.531
		c10.037,1.587,20.106,2.206,29.5,1.212c2.658,0.724,5.682-0.517,6.444-3.117c1.496,0.465,3.013,0.899,4.54,1.322
		c10.083,5.054,20.163,10.305,29.304,16.91C941.019,811.9,947.447,819.341,954.174,826.728z M895.463,775.402
		c-5.71-13.719-14.773-25.657-25.875-35.73c30.419,12.649,60.174,26.572,90.252,39.889
		C938.118,780.539,917.148,781.737,895.463,775.402z M949.085,759.187c1.588,1.408,3.086,2.904,4.601,4.383
		c-16.814-8.95-34.925-16.227-52.998-22.992c5.9-0.087,11.733-0.376,17.407-0.826c0.984-0.078,1.993-0.156,2.99-0.235
		C931.06,745.125,940.5,751.577,949.085,759.187z M840.831,719.711c-14.01-7.447-29.101-12.809-43.791-15.994
		c5.734-7.444,10.97-15.088,15.435-23.033c36.925,2.349,71.877,14.357,107.182,24.744c15.949,4.692,32.837,9.484,49.895,12.201
		C926.459,725.783,881.898,735.55,840.831,719.711z M1003.369,711.845c-32.479-2.744-63.032-9.514-94.77-18.835
		c-30.299-8.898-60.632-17.676-92.162-19.927c3.532-7.3,6.346-14.878,8.26-22.8c36.508-3.068,69.018-3.359,104.181,11.068
		C957.004,672.889,981.652,690.834,1003.369,711.845z M1005.613,646.773c-14.245,7.692-29.535,12.659-45.63,13.787
		c-7.928-4.477-16.129-8.491-24.601-11.985c26.978-0.067,54.394-2.137,80.252-8.172
		C1012.376,642.703,1009.071,644.905,1005.613,646.773z M985.93,612.516c-0.882-0.166-1.764-0.332-2.646-0.497
		c-1.898-0.355-3.797-0.712-5.695-1.068c14.877-8.072,27.036-22.195,37.27-35.038c12.404-15.567,23.991-32.031,25.88-52.274
		c0.28-3.005-1.637-4.919-4.02-5.577c-8.426-8.753-22.024-14.203-32.84-19.002c-1.032-0.458-2.085-0.841-3.123-1.276
		c20.999-12.562,40.443-27.55,59.168-43.385c11.03-9.328,21.757-19,32.215-28.964c-12.157,28.672-18.209,61.242-27.948,89.643
		C1049.751,557.195,1030.859,598.114,985.93,612.516z M1115.05,596.073c-3.566,4.172-7.391,8.118-11.424,11.838
		c-0.112,0.003-0.208-0.018-0.323-0.01c-5.714,0.372-11.455,0.328-17.159-0.191c-3.691-0.336-19.182-2.521-20.182-3.319
		c-0.883-0.704,0.325-5.511,0.886-5.744c2.828-1.174,5.668-2.321,8.489-3.511c18.733-7.904,39.866-15.39,57.598-26.672
		C1127.544,577.977,1122.333,587.551,1115.05,596.073z M1073.344,585.654c-0.273,0.124-0.55,0.241-0.824,0.365
		c5.532-14.098,8.102-27.994,8.371-43.017c18.827,2.649,36.309,6.764,54.521,13.074
		C1114.137,564.162,1093.987,576.302,1073.344,585.654z"/>
</g>
</svg>
